<mxfile host="www.draw.io" modified="2020-01-09T12:43:06.465Z" agent="Mozilla/5.0 (Windows NT 10.0; Win64; x64; rv:72.0) Gecko/20100101 Firefox/72.0" etag="37QK5QpLThZ0OQBYRTI0" version="12.5.1" type="github">
  <diagram id="jfZIMn2UsCP_KYUvGLMN" name="Page-1">
    <mxGraphModel dx="880" dy="1463" grid="1" gridSize="10" guides="1" tooltips="1" connect="1" arrows="1" fold="1" page="1" pageScale="1" pageWidth="850" pageHeight="1100" math="0" shadow="0">
      <root>
        <mxCell id="0"/>
        <mxCell id="1" parent="0"/>
        <mxCell id="vH36zvX7O-DuhWRN2NgF-12" value="User" style="swimlane;childLayout=stackLayout;horizontal=1;startSize=30;horizontalStack=0;fillColor=#008cff;fontColor=#FFFFFF;rounded=1;fontSize=14;fontStyle=0;strokeWidth=2;resizeParent=0;resizeLast=1;shadow=0;dashed=0;align=center;" vertex="1" parent="1">
          <mxGeometry x="10" y="-110" width="160" height="170" as="geometry"/>
        </mxCell>
        <mxCell id="vH36zvX7O-DuhWRN2NgF-13" value="+ID(PK)&#xa;+Username&#xa;+Password&#xa;+Email&#xa;+Token&#xa;+WeXinID&#xa;+IsAdmin&#xa;+IsActive&#xa;&#xa;" style="align=left;strokeColor=none;fillColor=none;spacingLeft=4;fontSize=12;verticalAlign=top;resizable=0;rotatable=0;part=1;" vertex="1" parent="vH36zvX7O-DuhWRN2NgF-12">
          <mxGeometry y="30" width="160" height="140" as="geometry"/>
        </mxCell>
        <mxCell id="vH36zvX7O-DuhWRN2NgF-14" value="Permission" style="swimlane;childLayout=stackLayout;horizontal=1;startSize=30;horizontalStack=0;fillColor=#008cff;fontColor=#FFFFFF;rounded=1;fontSize=14;fontStyle=0;strokeWidth=2;resizeParent=0;resizeLast=1;shadow=0;dashed=0;align=center;" vertex="1" parent="1">
          <mxGeometry x="270" y="-85" width="160" height="120" as="geometry"/>
        </mxCell>
        <mxCell id="vH36zvX7O-DuhWRN2NgF-15" value="+Description&#xa;+CanRead&#xa;+CanPost&#xa;+CanEdit&#xa;+CanDelete&#xa;" style="align=left;strokeColor=none;fillColor=none;spacingLeft=4;fontSize=12;verticalAlign=top;resizable=0;rotatable=0;part=1;" vertex="1" parent="vH36zvX7O-DuhWRN2NgF-14">
          <mxGeometry y="30" width="160" height="90" as="geometry"/>
        </mxCell>
        <mxCell id="vH36zvX7O-DuhWRN2NgF-17" value="News" style="swimlane;childLayout=stackLayout;horizontal=1;startSize=30;horizontalStack=0;fillColor=#008cff;fontColor=#FFFFFF;rounded=1;fontSize=14;fontStyle=0;strokeWidth=2;resizeParent=0;resizeLast=1;shadow=0;dashed=0;align=center;" vertex="1" parent="1">
          <mxGeometry x="20" y="160" width="160" height="120" as="geometry"/>
        </mxCell>
        <mxCell id="vH36zvX7O-DuhWRN2NgF-18" value="+NewsID&#xa;+Title&#xa;+Content&#xa;+Attribute3" style="align=left;strokeColor=none;fillColor=none;spacingLeft=4;fontSize=12;verticalAlign=top;resizable=0;rotatable=0;part=1;" vertex="1" parent="vH36zvX7O-DuhWRN2NgF-17">
          <mxGeometry y="30" width="160" height="90" as="geometry"/>
        </mxCell>
        <mxCell id="vH36zvX7O-DuhWRN2NgF-19" value="Video" style="swimlane;childLayout=stackLayout;horizontal=1;startSize=30;horizontalStack=0;fillColor=#008cff;fontColor=#FFFFFF;rounded=1;fontSize=14;fontStyle=0;strokeWidth=2;resizeParent=0;resizeLast=1;shadow=0;dashed=0;align=center;" vertex="1" parent="1">
          <mxGeometry x="590" y="60" width="160" height="120" as="geometry"/>
        </mxCell>
        <mxCell id="vH36zvX7O-DuhWRN2NgF-20" value="+StaticURL&#xa;+VType&#xa;+FilePath" style="align=left;strokeColor=none;fillColor=none;spacingLeft=4;fontSize=12;verticalAlign=top;resizable=0;rotatable=0;part=1;" vertex="1" parent="vH36zvX7O-DuhWRN2NgF-19">
          <mxGeometry y="30" width="160" height="90" as="geometry"/>
        </mxCell>
        <mxCell id="vH36zvX7O-DuhWRN2NgF-21" value="Classes" style="swimlane;childLayout=stackLayout;horizontal=1;startSize=30;horizontalStack=0;fillColor=#008cff;fontColor=#FFFFFF;rounded=1;fontSize=14;fontStyle=0;strokeWidth=2;resizeParent=0;resizeLast=1;shadow=0;dashed=0;align=center;" vertex="1" parent="1">
          <mxGeometry x="20" y="310" width="160" height="120" as="geometry"/>
        </mxCell>
        <mxCell id="vH36zvX7O-DuhWRN2NgF-22" value="+ClassID(PK)&#xa;+ClassName&#xa;+Description" style="align=left;strokeColor=none;fillColor=none;spacingLeft=4;fontSize=12;verticalAlign=top;resizable=0;rotatable=0;part=1;" vertex="1" parent="vH36zvX7O-DuhWRN2NgF-21">
          <mxGeometry y="30" width="160" height="90" as="geometry"/>
        </mxCell>
        <mxCell id="vH36zvX7O-DuhWRN2NgF-23" style="edgeStyle=orthogonalEdgeStyle;rounded=0;orthogonalLoop=1;jettySize=auto;html=1;exitX=1;exitY=0.5;exitDx=0;exitDy=0;entryX=0;entryY=0.5;entryDx=0;entryDy=0;" edge="1" parent="1" source="vH36zvX7O-DuhWRN2NgF-13" target="vH36zvX7O-DuhWRN2NgF-15">
          <mxGeometry relative="1" as="geometry"/>
        </mxCell>
        <mxCell id="vH36zvX7O-DuhWRN2NgF-24" value="Group" style="swimlane;childLayout=stackLayout;horizontal=1;startSize=30;horizontalStack=0;fillColor=#008cff;fontColor=#FFFFFF;rounded=1;fontSize=14;fontStyle=0;strokeWidth=2;resizeParent=0;resizeLast=1;shadow=0;dashed=0;align=center;" vertex="1" parent="1">
          <mxGeometry x="290" y="80" width="160" height="120" as="geometry"/>
        </mxCell>
        <mxCell id="vH36zvX7O-DuhWRN2NgF-25" value="+Attribute1&#xa;+Attribute2&#xa;+Attribute3" style="align=left;strokeColor=none;fillColor=none;spacingLeft=4;fontSize=12;verticalAlign=top;resizable=0;rotatable=0;part=1;" vertex="1" parent="vH36zvX7O-DuhWRN2NgF-24">
          <mxGeometry y="30" width="160" height="90" as="geometry"/>
        </mxCell>
        <mxCell id="vH36zvX7O-DuhWRN2NgF-26" value="Payment" style="swimlane;childLayout=stackLayout;horizontal=1;startSize=30;horizontalStack=0;fillColor=#008cff;fontColor=#FFFFFF;rounded=1;fontSize=14;fontStyle=0;strokeWidth=2;resizeParent=0;resizeLast=1;shadow=0;dashed=0;align=center;" vertex="1" parent="1">
          <mxGeometry x="270" y="320" width="160" height="120" as="geometry"/>
        </mxCell>
        <mxCell id="vH36zvX7O-DuhWRN2NgF-27" value="+UID&#xa;+Attribute2&#xa;+Attribute3" style="align=left;strokeColor=none;fillColor=none;spacingLeft=4;fontSize=12;verticalAlign=top;resizable=0;rotatable=0;part=1;" vertex="1" parent="vH36zvX7O-DuhWRN2NgF-26">
          <mxGeometry y="30" width="160" height="90" as="geometry"/>
        </mxCell>
        <mxCell id="vH36zvX7O-DuhWRN2NgF-28" style="edgeStyle=orthogonalEdgeStyle;rounded=0;orthogonalLoop=1;jettySize=auto;html=1;entryX=0;entryY=0.5;entryDx=0;entryDy=0;exitX=0.5;exitY=1;exitDx=0;exitDy=0;" edge="1" parent="1" source="vH36zvX7O-DuhWRN2NgF-13" target="vH36zvX7O-DuhWRN2NgF-26">
          <mxGeometry relative="1" as="geometry">
            <mxPoint x="180" y="120" as="sourcePoint"/>
            <Array as="points">
              <mxPoint x="90" y="140"/>
              <mxPoint x="240" y="140"/>
              <mxPoint x="240" y="380"/>
            </Array>
          </mxGeometry>
        </mxCell>
        <mxCell id="vH36zvX7O-DuhWRN2NgF-29" value="Reply" style="swimlane;childLayout=stackLayout;horizontal=1;startSize=30;horizontalStack=0;fillColor=#008cff;fontColor=#FFFFFF;rounded=1;fontSize=14;fontStyle=0;strokeWidth=2;resizeParent=0;resizeLast=1;shadow=0;dashed=0;align=center;" vertex="1" parent="1">
          <mxGeometry x="10" y="460" width="160" height="120" as="geometry"/>
        </mxCell>
        <mxCell id="vH36zvX7O-DuhWRN2NgF-30" value="+Attribute1&#xa;+Attribute2&#xa;+Attribute3" style="align=left;strokeColor=none;fillColor=none;spacingLeft=4;fontSize=12;verticalAlign=top;resizable=0;rotatable=0;part=1;" vertex="1" parent="vH36zvX7O-DuhWRN2NgF-29">
          <mxGeometry y="30" width="160" height="90" as="geometry"/>
        </mxCell>
        <mxCell id="vH36zvX7O-DuhWRN2NgF-31" value="Question" style="swimlane;childLayout=stackLayout;horizontal=1;startSize=30;horizontalStack=0;fillColor=#008cff;fontColor=#FFFFFF;rounded=1;fontSize=14;fontStyle=0;strokeWidth=2;resizeParent=0;resizeLast=1;shadow=0;dashed=0;align=center;" vertex="1" parent="1">
          <mxGeometry x="240" y="460" width="160" height="120" as="geometry"/>
        </mxCell>
        <mxCell id="vH36zvX7O-DuhWRN2NgF-32" value="+Attribute1&#xa;+Attribute2&#xa;+Attribute3" style="align=left;strokeColor=none;fillColor=none;spacingLeft=4;fontSize=12;verticalAlign=top;resizable=0;rotatable=0;part=1;" vertex="1" parent="vH36zvX7O-DuhWRN2NgF-31">
          <mxGeometry y="30" width="160" height="90" as="geometry"/>
        </mxCell>
      </root>
    </mxGraphModel>
  </diagram>
</mxfile>
